<?xml version="1.0" encoding="UTF-8" standalone="no"?>
<!-- Created with Inkscape (http://www.inkscape.org/) -->

<svg
   width="32"
   height="32"
   viewBox="0 0 8.4666665 8.4666666"
   version="1.1"
   id="svg1"
   sodipodi:docname="delete.svg"
   inkscape:version="1.4.2 (f4327f4, 2025-05-13)"
   xmlns:inkscape="http://www.inkscape.org/namespaces/inkscape"
   xmlns:sodipodi="http://sodipodi.sourceforge.net/DTD/sodipodi-0.dtd"
   xmlns="http://www.w3.org/2000/svg"
   xmlns:svg="http://www.w3.org/2000/svg">
  <sodipodi:namedview
     id="namedview1"
     pagecolor="#ffffff"
     bordercolor="#000000"
     borderopacity="0.25"
     inkscape:showpageshadow="2"
     inkscape:pageopacity="0.0"
     inkscape:pagecheckerboard="0"
     inkscape:deskcolor="#d1d1d1"
     inkscape:zoom="24.15625"
     inkscape:cx="16"
     inkscape:cy="16"
     inkscape:window-width="1920"
     inkscape:window-height="991"
     inkscape:window-x="-9"
     inkscape:window-y="-9"
     inkscape:window-maximized="1"
     inkscape:current-layer="svg1" />
  <defs
     id="defs1" />
  <path
     style="fill:none;fill-opacity:1;stroke:#ffffff;stroke-width:0.44979166;stroke-linecap:round;stroke-linejoin:round;stroke-miterlimit:6.6;stroke-dasharray:none"
     d="m 1.4708934,2.3627566 c 0.194804,0.882517 0.4160025,1.5894627 0.5806424,2.4126624 0.067258,0.336287 0.2193409,0.7390037 0.2727241,1.0770967 0.042348,0.2682055 0.1197272,0.4953228 0.1530195,0.7616617 0.022668,0.181347 0.053669,0.6177366 0.099356,0.8004806 0.5617805,0.040729 1.4471894,-0.084925 1.9853612,-0.040376 0.095106,0.00787 1.1844024,-0.076671 1.2833246,-0.076671 C 5.909259,6.8216662 5.9902695,6.6971321 6.0731325,6.2275753 6.0949977,6.1036725 6.2174967,5.677164 6.2446219,5.5491343 6.3017404,5.2795382 6.3090522,5.108224 6.3920038,4.8830696 6.5052226,4.5757615 6.5116069,4.2228764 6.6224727,3.9272342 6.6566794,3.8360162 6.6524652,3.7319184 6.7226065,3.6246311 6.893178,3.363727 6.9291939,2.9738892 7.032404,2.6642588 7.0796612,2.5224871 7.125376,2.2267184 7.1801083,2.1172538"
     id="path21" />
  <path
     style="fill:none;fill-opacity:1;stroke:#ffffff;stroke-width:0.44979166;stroke-linecap:round;stroke-linejoin:miter;stroke-miterlimit:6.6;stroke-dasharray:none"
     d="m 1.0842914,2.1840726 c 1.2080238,-0.013451 2.4152515,-0.03098 3.6246312,-0.03098 0.3936278,0 0.7292307,-0.033187 1.1643983,-0.076671 0.1382772,-0.013817 0.3005284,0.0062 0.4465488,-0.016268 0.4366099,0.00192 0.8688173,-0.040097 1.2773644,-0.017369"
     id="path22" />
  <path
     style="fill:none;fill-opacity:1;stroke:#ffffff;stroke-width:0.44979166;stroke-linecap:round;stroke-linejoin:miter;stroke-miterlimit:6.6;stroke-dasharray:none"
     d="M 2.8490366,3.3360947 C 2.9277406,4.1043074 3.4999337,5.358955 3.4999337,6.1343136"
     id="path24" />
  <path
     style="fill:none;fill-opacity:1;stroke:#ffffff;stroke-width:0.44979166;stroke-linecap:round;stroke-linejoin:miter;stroke-miterlimit:6.6;stroke-dasharray:none"
     d="M 4.384736,3.3024574 C 4.446663,3.8855331 4.393426,4.7737768 4.331072,5.3349337 4.307686,5.545401 4.346561,6.0222182 4.346561,6.2283538"
     id="path25" />
  <path
     style="fill:none;fill-opacity:1;stroke:#ffffff;stroke-width:0.44979166;stroke-linecap:round;stroke-linejoin:miter;stroke-miterlimit:6.6;stroke-dasharray:none"
     d="M 5.8630127,3.3425109 C 5.6892702,3.7694847 5.5155818,4.4419618 5.4666921,4.8819687 c -0.022106,0.198946 -0.089943,0.4312637 -0.138631,0.6260114 -0.03096,0.1238414 -0.219838,0.5882927 -0.219838,0.7158367"
     id="path26" />
  <path
     style="fill:none;fill-opacity:1;stroke:#ffffff;stroke-width:0.44979166;stroke-linecap:round;stroke-linejoin:miter;stroke-miterlimit:6.6;stroke-dasharray:none"
     d="m 2.3234815,2.0291739 c 4.763e-4,-0.281391 0.11047,-0.5130459 0.2315698,-0.7552455 0.011708,-0.023416 0.4484669,-0.065718 0.6513531,-0.065718 0.7890198,0 1.5792614,-0.061959 2.3699512,-0.061959 0.015475,0 0.3790368,-0.029625 0.4027369,0 0.099843,0.1248033 0.080138,0.2249258 0.1239189,0.3562671 0.048856,0.1465681 0.1876782,0.284217 0.2323481,0.4182267"
     id="path27" />
</svg>
