<?xml version="1.0" encoding="UTF-8" standalone="no"?>
<!-- Created with Inkscape (http://www.inkscape.org/) -->

<svg
   width="32"
   height="32"
   viewBox="0 0 8.4666665 8.4666666"
   version="1.1"
   id="svg1"
   sodipodi:docname="edit.svg"
   inkscape:version="1.4.2 (f4327f4, 2025-05-13)"
   xmlns:inkscape="http://www.inkscape.org/namespaces/inkscape"
   xmlns:sodipodi="http://sodipodi.sourceforge.net/DTD/sodipodi-0.dtd"
   xmlns="http://www.w3.org/2000/svg"
   xmlns:svg="http://www.w3.org/2000/svg">
  <sodipodi:namedview
     id="namedview1"
     pagecolor="#000000"
     bordercolor="#000000"
     borderopacity="0.25"
     inkscape:showpageshadow="2"
     inkscape:pageopacity="0.0"
     inkscape:pagecheckerboard="0"
     inkscape:deskcolor="#d1d1d1"
     inkscape:zoom="24.15625"
     inkscape:cx="16"
     inkscape:cy="16"
     inkscape:window-width="1920"
     inkscape:window-height="991"
     inkscape:window-x="-9"
     inkscape:window-y="-9"
     inkscape:window-maximized="1"
     inkscape:current-layer="svg1" />
  <defs
     id="defs1" />
  <path
     style="fill:none;fill-opacity:1;stroke:#ffffff;stroke-width:0.423333;stroke-linecap:round;stroke-linejoin:round;stroke-dasharray:none"
     d="m 5.2761364,1.2059305 c -0.7048394,-0.00319 -1.2443338,-0.027168 -1.9654457,0.00476 -0.2366095,0.010478 -0.6459246,-0.00365 -0.8946153,0.01847 -0.3864634,0.034379 -0.6906939,0.050225 -1.0809107,0.050225 0.018255,0.043812 -0.067821,0.1868182 -0.053664,0.2321202 0.035041,0.1121296 0,0.2896029 0,0.4052608 0,0.3997964 -0.014317,0.7952363 -0.032859,1.1938767 -0.034783,0.7478434 -0.00764,1.507919 0,2.2563173 0.00548,0.5366805 -0.031527,1.1028227 -0.051006,1.6010168 -0.00475,0.1214969 0.018147,0.2493932 0.018147,0.3486167 0.040161,0.0073 0.079706,0.020052 0.120483,0.021906 0.1825774,0.0083 0.3749176,0.026498 0.5586029,0.021906 0.5108542,-0.012771 1.0225756,-0.080962 1.5334195,-0.098577 0.2956482,-0.010195 0.5792962,0.00521 0.8762398,0 C 4.9669904,7.250212 5.6350067,7.209502 6.2934364,7.120223 6.3530984,7.112133 7.1572488,7.036428 7.4808969,7.0099146"
     id="path15"
     sodipodi:nodetypes="csccssccscsssssc" />
  <path
     style="fill:#ffffff;fill-opacity:1;stroke:#ffffff;stroke-width:0.423333;stroke-linecap:round;stroke-linejoin:round;stroke-dasharray:none"
     d="m 7.5904269,3.0558861 c -0.1228511,0.867976 0,1.7218006 0,2.5958603 0,0.2332064 -0.084981,0.5224342 -0.052107,0.7525487 0.023707,0.165939 -0.045919,0.4321182 -0.038174,0.5922402"
     id="path16"
     sodipodi:nodetypes="cssc" />
  <path
     style="fill:#ffffff;fill-opacity:1;stroke:#ffffff;stroke-width:0.423333;stroke-linecap:round;stroke-linejoin:round;stroke-dasharray:none"
     d="M 4.3203792,3.9298849 C 4.680472,3.5080045 5.4756861,2.6567375 5.8160136,2.2576739 5.9758291,2.0702763 6.1220396,1.9228326 6.2590596,1.7578224 6.4009456,1.5869523 6.5247561,1.4677264 6.6533676,1.3142261 6.7706786,1.1742133 6.9424775,0.96206933 7.043803,0.85541501 7.0896601,0.80714631 7.1794627,0.76133651 7.1998027,0.72065651"
     id="path17"
     sodipodi:nodetypes="cssssc" />
  <path
     style="fill:#ffffff;fill-opacity:1;stroke:#ffffff;stroke-width:0.423333;stroke-linecap:round;stroke-linejoin:round;stroke-dasharray:none"
     d="M 4.9447002,4.3810652 C 5.5224192,3.8051099 6.1461685,3.0938613 6.6996093,2.4657809 6.8645927,2.2785471 7.2833846,1.747523 7.4419834,1.555192 7.5501924,1.4239682 7.6980067,1.3279235 7.7596202,1.2046961"
     id="path18"
     sodipodi:nodetypes="cssc" />
  <path
     style="fill:#ffffff;fill-opacity:1;stroke:#ffffff;stroke-width:0.423333;stroke-linecap:round;stroke-linejoin:round;stroke-dasharray:none"
     d="M 4.9455866,4.3829973 C 5.0187931,4.3018563 4.8710094,4.3686615 4.8442714,4.3419235 4.6883977,4.1860498 4.5175774,4.0407384 4.3404336,3.8928507 L 4.2445949,4.0297632 C 4.2336419,4.0516692 4.2011367,4.1110144 4.1870917,4.1310784 4.1159487,4.2327119 4.1320276,4.2547483 4.0666088,4.3528766 4.0166838,4.4277646 3.9549605,4.5932228 3.9324345,4.7033725 4.3025376,4.6484665 4.6272006,4.5500308 4.9455866,4.3829973 Z"
     id="path19"
     sodipodi:nodetypes="cscccscc" />
  <path
     style="fill:#ffffff;fill-opacity:1;stroke:#ffffff;stroke-width:0.423333;stroke-linecap:round;stroke-linejoin:round;stroke-dasharray:none"
     d="M 6.6855621,1.3071455 C 6.801239,1.514383 7.0273014,1.6379318 7.178447,1.7890774"
     id="path20"
     sodipodi:nodetypes="cc" />
  <path
     style="fill:#ffffff;fill-opacity:1;stroke:#ffffff;stroke-width:0.423333;stroke-linecap:round;stroke-linejoin:round;stroke-dasharray:none"
     d="M 7.0695816,0.87610621 C 7.1231473,0.95574353 7.5414604,1.4079117 7.5953253,1.3361321 7.648592,1.2651496 7.7180542,1.2344726 7.7377143,1.2156491 7.8970256,1.0631168 7.7903122,1.0672913 7.5734194,0.84324721 7.3671365,0.63016281 7.272829,0.63729701 7.156655,0.75883131"
     id="path21"
     sodipodi:nodetypes="csssc" />
</svg>
