<?xml version="1.0" encoding="UTF-8" standalone="no"?>
<!-- Created with Inkscape (http://www.inkscape.org/) -->

<svg
   width="32"
   height="32"
   viewBox="0 0 8.4666665 8.4666666"
   version="1.1"
   id="svg1"
   sodipodi:docname="save.svg"
   inkscape:version="1.4.2 (f4327f4, 2025-05-13)"
   xmlns:inkscape="http://www.inkscape.org/namespaces/inkscape"
   xmlns:sodipodi="http://sodipodi.sourceforge.net/DTD/sodipodi-0.dtd"
   xmlns="http://www.w3.org/2000/svg"
   xmlns:svg="http://www.w3.org/2000/svg">
  <sodipodi:namedview
     id="namedview1"
     pagecolor="#000000"
     bordercolor="#000000"
     borderopacity="0.25"
     inkscape:showpageshadow="2"
     inkscape:pageopacity="0.0"
     inkscape:pagecheckerboard="0"
     inkscape:deskcolor="#d1d1d1"
     inkscape:zoom="24.15625"
     inkscape:cx="16"
     inkscape:cy="18.649418"
     inkscape:window-width="1920"
     inkscape:window-height="991"
     inkscape:window-x="-9"
     inkscape:window-y="-9"
     inkscape:window-maximized="1"
     inkscape:current-layer="svg1" />
  <defs
     id="defs1" />
  <path
     style="fill:none;fill-opacity:1;stroke:#ffffff;stroke-width:0.661458;stroke-linecap:round;stroke-linejoin:round;stroke-miterlimit:6.6;stroke-dasharray:none"
     d="M 1.0914654,3.2655399 C 1.2667549,3.0899024 1.4905111,3.2171655 1.6958353,3.0904886 1.8120964,3.01876 2.0341957,2.7105308 2.0440327,2.7400417 2.1536076,3.0687663 2.4256895,3.6753056 2.5841622,3.9288619 2.732465,4.1661466 2.913027,4.4149975 3.07527,4.6421375 3.2426806,4.8765126 3.4666883,5.0790025 3.6599219,5.2969479 3.7936194,5.4477434 4.0282176,5.7565263 4.043077,5.7404526 4.1348001,5.6412339 4.1346655,5.5873015 4.1903645,5.5197033 4.3386002,5.3397991 4.4485866,4.9915456 4.5252071,4.8643053 4.6748792,4.6157515 4.8453005,4.2934461 5.039701,3.9873271 5.2763342,3.614705 5.4045191,3.1591755 5.6360461,2.7829438 5.6848061,2.7037098 5.7550142,2.6310965 5.7997486,2.5490831 5.8273976,2.4983931 6.2977745,1.4350409 6.3084671,1.4249899 6.4963877,1.2483473 6.5256555,1.485795 6.901245,1.5093312 c 0.3049263,0.019108 0.5322649,0.1509822 0.6524598,0.1393847 0.2570718,-0.024805 4.94e-4,0.389323 -0.158028,0.57379 C 7.3138926,2.3697203 7.2379789,2.4980598 7.1603973,2.6454647 7.0233878,2.9057825 6.89725,3.3946483 6.7545658,3.6438723 6.3842732,4.2906559 6.2482613,4.8009095 5.8467643,5.4318333 5.6178423,5.7915677 5.3200204,6.1599063 5.0921474,6.5207048 4.9360441,6.7678685 4.7683465,7.0266066 4.6195824,7.2573665 4.5310252,7.3947346 4.3390235,7.6120958 4.2779915,7.6731283 4.2653075,7.6858123 4.258284,7.6694666 4.1002455,7.5243001 4.0470309,7.497693 3.9741974,7.4287069 3.8820899,7.3315371 3.5843232,7.017405 3.2683966,6.760279 3.0051118,6.431173 2.7919029,6.1646619 2.5195868,5.9601702 2.3152222,5.6828184 2.1790497,5.4980128 2.0645256,5.2770502 1.9253394,5.0939104 1.7595418,4.8757556 1.0118461,3.5442073 1.0914654,3.2655399 Z"
     id="path28" />
</svg>
