<?xml version="1.0" encoding="UTF-8" standalone="no"?>
<!-- Created with Inkscape (http://www.inkscape.org/) -->

<svg
   width="64"
   height="32"
   viewBox="0 0 16.933324 8.4666666"
   version="1.1"
   id="svg1"
   sodipodi:docname="unfold.svg"
   inkscape:version="1.4.2 (f4327f4, 2025-05-13)"
   xmlns:inkscape="http://www.inkscape.org/namespaces/inkscape"
   xmlns:sodipodi="http://sodipodi.sourceforge.net/DTD/sodipodi-0.dtd"
   xmlns="http://www.w3.org/2000/svg"
   xmlns:svg="http://www.w3.org/2000/svg">
  <sodipodi:namedview
     id="namedview1"
     pagecolor="#ffffff"
     bordercolor="#000000"
     borderopacity="0.25"
     inkscape:showpageshadow="2"
     inkscape:pageopacity="0.0"
     inkscape:pagecheckerboard="0"
     inkscape:deskcolor="#d1d1d1"
     inkscape:zoom="17.081048"
     inkscape:cx="32.111612"
     inkscape:cy="15.075187"
     inkscape:window-width="1920"
     inkscape:window-height="991"
     inkscape:window-x="-9"
     inkscape:window-y="-9"
     inkscape:window-maximized="1"
     inkscape:current-layer="svg1" />
  <defs
     id="defs1" />
  <path
     style="fill:none;fill-opacity:1;stroke:#ffffff;stroke-width:0.661458;stroke-linecap:round;stroke-linejoin:round;stroke-miterlimit:6.6;stroke-dasharray:none"
     d="m 3.8296076,1.6308887 c 0.015954,0.9753047 0.00894,0.8368583 0.066146,2.9269523 0.0063,0.2300977 -0.037949,0.4833714 0,0.7110675 0.040583,0.2434997 0.012524,0.8554788 0.012524,1.1134742 C 4.5235053,6.0029381 5.0094887,5.7500746 5.4752281,5.1586852"
     id="path28" />
  <path
     style="fill:none;fill-opacity:1;stroke:#ffffff;stroke-width:0.661458;stroke-linecap:round;stroke-linejoin:round;stroke-miterlimit:6.6;stroke-dasharray:none"
     d="M 3.8215828,6.3686835 C 3.7829978,6.3576583 3.761553,6.3125979 3.7292137,6.2888383 3.4891735,6.1124822 3.2513734,5.9496775 3.0112966,5.7733711 2.704811,5.5482957 2.5090141,5.3920889 2.3130973,5.0982137"
     id="path29" />
  <path
     style="fill:none;fill-opacity:1;stroke:#ffffff;stroke-width:0.661458;stroke-linecap:round;stroke-linejoin:round;stroke-miterlimit:6.6;stroke-dasharray:none"
     d="m 8.7243979,1.6210593 c -0.071129,0.3200833 0.031489,0.3862624 0.00201,0.917043 -0.040065,0.7211759 -0.071394,1.2576135 -0.015361,1.9860364 0.014235,0.1850654 -0.037901,0.3899413 -0.029404,0.5525526 0.013094,0.2505918 0.033073,1.1317781 0.033073,1.3832451"
     id="path30" />
  <path
     style="fill:none;fill-opacity:1;stroke:#ffffff;stroke-width:0.661458;stroke-linecap:round;stroke-linejoin:round;stroke-miterlimit:6.6;stroke-dasharray:none"
     d="M 7.1283868,4.9387253 C 7.6251977,5.2641828 8.3508827,6.3077559 8.702187,6.4482434 9.1266124,6.4406785 9.3700139,5.921937 9.6290599,5.6538052 9.9539809,5.3174874 10.121691,5.1414556 10.384893,4.8782539"
     id="path31" />
  <path
     style="fill:none;fill-opacity:1;stroke:#ffffff;stroke-width:0.661458;stroke-linecap:round;stroke-linejoin:round;stroke-miterlimit:6.6;stroke-dasharray:none"
     d="m 13.212627,1.6371089 c 0.01211,1.5374039 0.06615,3.2285196 0.06615,4.7656801"
     id="path32" />
  <path
     style="fill:none;fill-opacity:1;stroke:#ffffff;stroke-width:0.661458;stroke-linecap:round;stroke-linejoin:round;stroke-miterlimit:6.6;stroke-dasharray:none"
     d="m 11.717496,5.0068773 c 0.449217,0.4042554 1.159526,0.8376206 1.524536,1.3220853 0.255069,-0.024411 0.185615,-0.1984899 0.382,-0.3121864 0.311788,-0.180509 0.553139,-0.456812 0.860727,-0.646097 0.233111,-0.1434532 0.245273,-0.254051 0.504604,-0.3577834"
     id="path33" />
</svg>
